<svg width="1795" height="68" viewBox="0 0 1795 68" fill="none" xmlns="http://www.w3.org/2000/svg">
<rect x="36" y="1" width="1724" height="66" rx="3" fill="#036547"/>
<rect x="36" y="1" width="1724" height="66" rx="3" stroke="#07E0B0" stroke-width="2"/>
<path d="M1579 1H1791C1792.66 1 1794 2.34315 1794 4V32.2949C1794 33.0609 1793.71 33.7956 1793.18 34.3506L1793.08 34.459L1777.33 49.5703L1777.32 49.5771L1777.31 49.585L1760.8 66.1201C1760.24 66.6834 1759.48 66.9999 1758.68 67H1579C1577.34 67 1576 65.6569 1576 64V4C1576 2.34315 1577.34 1 1579 1Z" fill="#036547" stroke="#07E0B0" stroke-width="2"/>
<path d="M216 67H4C2.34315 67 1 65.6569 1 64V35.7051C1.00007 34.9391 1.29309 34.2044 1.81543 33.6494L1.92285 33.541L17.6699 18.4297L17.6777 18.4229L17.6855 18.415L34.1982 1.87988C34.7608 1.31665 35.5242 1.00013 36.3203 1H216C217.657 1 219 2.34315 219 4V64C219 65.6569 217.657 67 216 67Z" fill="#036547" stroke="#07E0B0" stroke-width="2"/>
<mask id="path-4-inside-1_1638_214" fill="white">
<path d="M200 0H1610V68H200V0Z"/>
</mask>
<path d="M200 0H1610V68H200V0Z" fill="#036547"/>
<path d="M200 0V2H1610V0V-2H200V0ZM1610 68V66H200V68V70H1610V68Z" fill="#07E0B0" mask="url(#path-4-inside-1_1638_214)"/>
<path d="M855.064 46.312V24.76H859.456V26.704H857.416V44.368H859.456V46.312H855.064ZM873.557 43.288C872.149 43.288 870.949 43.032 869.957 42.52C868.981 42.008 868.141 41.32 867.437 40.456L869.309 38.704C869.901 39.424 870.549 39.968 871.253 40.336C871.973 40.704 872.789 40.888 873.701 40.888C874.773 40.888 875.581 40.648 876.125 40.168C876.669 39.688 876.941 39.04 876.941 38.224C876.941 37.568 876.749 37.048 876.365 36.664C875.981 36.28 875.301 35.992 874.325 35.8L872.837 35.536C871.205 35.232 869.981 34.696 869.165 33.928C868.349 33.16 867.941 32.104 867.941 30.76C867.941 30.024 868.077 29.36 868.349 28.768C868.637 28.16 869.029 27.656 869.525 27.256C870.037 26.84 870.653 26.52 871.373 26.296C872.093 26.072 872.901 25.96 873.797 25.96C875.061 25.96 876.157 26.184 877.085 26.632C878.013 27.064 878.805 27.696 879.461 28.528L877.565 30.208C877.133 29.648 876.605 29.2 875.981 28.864C875.357 28.528 874.581 28.36 873.653 28.36C872.693 28.36 871.949 28.552 871.421 28.936C870.893 29.32 870.629 29.88 870.629 30.616C870.629 31.32 870.845 31.848 871.277 32.2C871.709 32.536 872.381 32.792 873.293 32.968L874.781 33.28C876.461 33.6 877.685 34.144 878.453 34.912C879.237 35.68 879.629 36.736 879.629 38.08C879.629 38.864 879.493 39.576 879.221 40.216C878.949 40.856 878.549 41.408 878.021 41.872C877.509 42.32 876.877 42.672 876.125 42.928C875.373 43.168 874.517 43.288 873.557 43.288ZM882.884 43V26.248H893.612V28.648H885.596V33.304H892.868V35.704H885.596V40.6H893.612V43H882.884ZM901.623 33.736L899.775 30.184H899.703V43H897.111V26.248H900.135L905.607 35.512L907.455 39.064H907.527V26.248H910.119V43H907.095L901.623 33.736ZM914.244 26.248H920.172C921.244 26.248 922.212 26.424 923.076 26.776C923.956 27.128 924.7 27.656 925.308 28.36C925.932 29.048 926.412 29.92 926.748 30.976C927.084 32.016 927.252 33.232 927.252 34.624C927.252 36.016 927.084 37.24 926.748 38.296C926.412 39.336 925.932 40.208 925.308 40.912C924.7 41.6 923.956 42.12 923.076 42.472C922.212 42.824 921.244 43 920.172 43H914.244V26.248ZM920.172 40.6C921.42 40.6 922.428 40.208 923.196 39.424C923.964 38.64 924.348 37.488 924.348 35.968V33.28C924.348 31.76 923.964 30.608 923.196 29.824C922.428 29.04 921.42 28.648 920.172 28.648H916.956V40.6H920.172ZM939.97 24.76V46.312H935.578V44.368H937.618V26.704H935.578V24.76H939.97Z" fill="#E4E4E4"/>
<path d="M1788.5 2H1794V7.47368H1788.5V2Z" fill="#07E0B0"/>
<path d="M1783 7.47368H1788.5V12.9474H1783V7.47368Z" fill="#07E0B0"/>
<path d="M1788.5 12.9474H1794V18.4211H1788.5V12.9474Z" fill="#07E0B0"/>
<path d="M1774.75 4.73684H1780.25V10.2105H1774.75V4.73684Z" fill="#07E0B0"/>
<path d="M1766.5 2H1772V7.47368H1766.5V2Z" fill="#07E0B0"/>
<path d="M1772 12.9474H1777.5V18.4211H1772V12.9474Z" fill="#07E0B0"/>
<path d="M1773.38 25.2632H1778.88V30.7368H1773.38V25.2632Z" fill="#07E0B0"/>
<path d="M1781.62 32.1053H1787.12V37.5789H1781.62V32.1053Z" fill="#07E0B0"/>
<path d="M1774.75 37.5789H1780.25V43.0526H1774.75V37.5789Z" fill="#07E0B0"/>
<path d="M1766.5 48.5263H1772V54H1766.5V48.5263Z" fill="#07E0B0"/>
<path d="M1766.5 32.1053H1772V37.5789H1766.5V32.1053Z" fill="#07E0B0"/>
<path d="M1766.5 18.4211H1772V23.8947H1766.5V18.4211Z" fill="#07E0B0"/>
<path d="M1781.62 18.4211H1787.12V23.8947H1781.62V18.4211Z" fill="#07E0B0"/>
<path d="M1788.5 25.2632H1794V30.7368H1788.5V25.2632Z" fill="#07E0B0"/>
<path d="M1761 25.2632H1766.5V30.7368H1761V25.2632Z" fill="#07E0B0"/>
<path d="M1761 9.52632H1766.5V15H1761V9.52632Z" fill="#07E0B0"/>
<path d="M1761 38.9474H1766.5V44.4211H1761V38.9474Z" fill="#07E0B0"/>
<path d="M6.66667 66H1V60.3158H6.66667V66Z" fill="#07E0B0"/>
<path d="M12.3333 60.3158H6.66667V54.6316H12.3333V60.3158Z" fill="#07E0B0"/>
<path d="M6.66667 54.6316H1V48.9474H6.66667V54.6316Z" fill="#07E0B0"/>
<path d="M20.8333 63.1579H15.1667V57.4737H20.8333V63.1579Z" fill="#07E0B0"/>
<path d="M29.3333 66H23.6667V60.3158H29.3333V66Z" fill="#07E0B0"/>
<path d="M23.6667 54.6316H18V48.9474H23.6667V54.6316Z" fill="#07E0B0"/>
<path d="M22.25 41.8421H16.5833V36.1579H22.25V41.8421Z" fill="#07E0B0"/>
<path d="M13.75 34.7368H8.08333V29.0526H13.75V34.7368Z" fill="#07E0B0"/>
<path d="M20.8333 29.0526H15.1667V23.3684H20.8333V29.0526Z" fill="#07E0B0"/>
<path d="M29.3333 17.6842H23.6667V12H29.3333V17.6842Z" fill="#07E0B0"/>
<path d="M29.3333 34.7368H23.6667V29.0526H29.3333V34.7368Z" fill="#07E0B0"/>
<path d="M29.3333 48.9474H23.6667V43.2632H29.3333V48.9474Z" fill="#07E0B0"/>
<path d="M13.75 48.9474H8.08333V43.2632H13.75V48.9474Z" fill="#07E0B0"/>
<path d="M6.66667 41.8421H1V36.1579H6.66667V41.8421Z" fill="#07E0B0"/>
<path d="M35 41.8421H29.3333V36.1579H35V41.8421Z" fill="#07E0B0"/>
<path d="M35 58.1842H29.3333V52.5H35V58.1842Z" fill="#07E0B0"/>
<path d="M35 27.6316H29.3333V21.9474H35V27.6316Z" fill="#07E0B0"/>
</svg>
