<svg width="78" height="74" viewBox="0 0 78 74" fill="none" xmlns="http://www.w3.org/2000/svg">
<path d="M16.3694 8.22588C16.3683 10.4064 15.5049 12.4972 13.9692 14.0383C12.4335 15.5794 10.3513 16.4446 8.18059 16.4435C6.00988 16.4424 3.9285 15.5752 2.39434 14.0325C0.860186 12.4899 -0.00108433 10.3982 1.02456e-06 8.21766C0.00108638 6.03711 0.864439 3.9463 2.40013 2.40519C3.93582 0.864084 6.01806 -0.00108924 8.18877 1.02921e-06C10.3595 0.0010913 12.4409 0.868356 13.975 2.41101C15.5092 3.95366 16.3704 6.04533 16.3694 8.22588ZM16.6149 22.5317H0.245541V74H16.6149V22.5317ZM42.4785 22.5317H26.191V74H42.3148V46.9915C42.3148 31.9457 61.8353 30.548 61.8353 46.9915V74H78V41.4007C78 16.0366 49.1081 16.9821 42.3148 29.438L42.4785 22.5317Z" fill="#E4E4E4"/>
</svg>
